<svg width="31" height="31" viewBox="0 0 31 31" fill="none" xmlns="http://www.w3.org/2000/svg">
<path d="M13.724 23.3753H17.0573V16.7087H23.724V13.3753H17.0573V6.70866H13.724V13.3753H7.05729V16.7087H13.724V23.3753ZM3.72396 30.042C2.80729 30.042 2.02229 29.7159 1.36896 29.0637C0.716736 28.4103 0.390625 27.6253 0.390625 26.7087V3.37533C0.390625 2.45866 0.716736 1.67366 1.36896 1.02033C2.02229 0.368103 2.80729 0.0419922 3.72396 0.0419922H27.0573C27.974 0.0419922 28.759 0.368103 29.4123 1.02033C30.0645 1.67366 30.3906 2.45866 30.3906 3.37533V26.7087C30.3906 27.6253 30.0645 28.4103 29.4123 29.0637C28.759 29.7159 27.974 30.042 27.0573 30.042H3.72396Z" fill="#192440"/>
</svg>
