<svg width="17" height="14" viewBox="0 0 17 14" fill="none" xmlns="http://www.w3.org/2000/svg">
<path d="M5.34391 9.63253L13.9481 1.02836C14.2154 0.760999 14.5557 0.627319 14.9689 0.627319C15.3821 0.627319 15.7224 0.760999 15.9897 1.02836C16.2571 1.29572 16.3908 1.636 16.3908 2.04919C16.3908 2.46239 16.2571 2.80267 15.9897 3.07003L6.36475 12.695C6.07308 12.9867 5.7328 13.1325 5.34391 13.1325C4.95502 13.1325 4.61475 12.9867 4.32308 12.695L0.531412 8.90336C0.264051 8.636 0.130371 8.29572 0.130371 7.88253C0.130371 7.46933 0.264051 7.12905 0.531412 6.86169C0.798773 6.59433 1.13905 6.46065 1.55225 6.46065C1.96544 6.46065 2.30572 6.59433 2.57308 6.86169L5.34391 9.63253Z" fill="white"/>
</svg>
