<svg width="34" height="34" viewBox="0 0 34 34" fill="none" xmlns="http://www.w3.org/2000/svg">
<path d="M15.3453 18.2708L18.6956 14.9712" stroke="black"/>
<rect x="1.5229" y="1.49983" width="30.2455" height="30.2455" rx="15.1228" transform="matrix(1 0 0.0152648 0.999884 0.120538 0.000174681)" stroke="black" stroke-width="3"/>
<path d="M15.3293 18.241L12.1292 11.9378C12.0859 11.8525 12.1778 11.762 12.2644 11.8047L18.6646 14.9563C18.6841 14.9659 18.6999 14.9814 18.7096 15.0006L21.9097 21.3039C21.953 21.3892 21.8612 21.4797 21.7746 21.437L15.3743 18.2854C15.3548 18.2758 15.339 18.2602 15.3293 18.241Z" stroke="black"/>
<path d="M17.0212 3.42462V8.37324" stroke="black" stroke-linecap="round"/>
<path d="M30.4204 16.6208H25.3956" stroke="black" stroke-linecap="round"/>
<path d="M17.0212 29.8171V24.8685" stroke="black" stroke-linecap="round"/>
<path d="M3.6217 16.6208H8.64645" stroke="black" stroke-linecap="round"/>
</svg>
