<svg width="20" height="12" viewBox="0 0 20 12" fill="none" xmlns="http://www.w3.org/2000/svg">
<path d="M19.3299 2.89111L10.9299 11.3161C10.8299 11.4161 10.7215 11.4871 10.6049 11.5291C10.4882 11.5711 10.3632 11.5918 10.2299 11.5911C10.0965 11.5911 9.97155 11.5701 9.85488 11.5281C9.73822 11.4861 9.62988 11.4154 9.52988 11.3161L1.10488 2.89111C0.871549 2.65778 0.754883 2.36611 0.754883 2.01611C0.754883 1.66611 0.879883 1.36611 1.12988 1.11611C1.37988 0.86611 1.67155 0.74111 2.00488 0.74111C2.33822 0.74111 2.62988 0.86611 2.87988 1.11611L10.2299 8.46611L17.5799 1.11611C17.8132 0.882777 18.1009 0.76611 18.4429 0.76611C18.7849 0.76611 19.0806 0.89111 19.3299 1.14111C19.5799 1.39111 19.7049 1.68278 19.7049 2.01611C19.7049 2.34944 19.5799 2.64111 19.3299 2.89111Z" fill="white"/>
</svg>
