<svg width="23" height="23" viewBox="0 0 23 23" fill="none" xmlns="http://www.w3.org/2000/svg">
<path d="M4.4244 19.0642C3.92023 19.0642 3.48879 18.8849 3.13006 18.5261C2.77073 18.1668 2.59106 17.7351 2.59106 17.2309V6.23089C2.59106 5.72673 2.77073 5.29528 3.13006 4.93656C3.48879 4.57723 3.92023 4.39756 4.4244 4.39756H9.9244L11.7577 6.23089H19.0911C19.5952 6.23089 20.027 6.41056 20.3863 6.76989C20.745 7.12862 20.9244 7.56006 20.9244 8.06423V17.2309C20.9244 17.7351 20.745 18.1668 20.3863 18.5261C20.027 18.8849 19.5952 19.0642 19.0911 19.0642H4.4244ZM15.4244 17.2309H19.0911V8.06423H15.4244V9.89756H17.2577V11.7309H15.4244V13.5642H17.2577V15.3976H15.4244V17.2309ZM4.4244 17.2309H13.5911V15.3976H15.4244V13.5642H13.5911V11.7309H15.4244V9.89756H13.5911V8.06423H11.0015L9.16815 6.23089H4.4244V17.2309ZM4.4244 8.06423V6.23089V17.2309V8.06423Z" fill="#F0F0F0"/>
</svg>
