<svg width="34" height="48" viewBox="0 0 34 48" fill="none" xmlns="http://www.w3.org/2000/svg">
<path d="M17.3816 47.2982C12.7962 47.2982 8.90503 45.6997 5.70816 42.5029C2.51128 39.306 0.912842 35.4148 0.912842 30.8294V14.3607C0.912842 13.0044 1.38107 11.8581 2.31753 10.9216C3.25399 9.98514 4.40034 9.51691 5.75659 9.51691C5.91805 9.51691 6.07951 9.52466 6.24097 9.54016C6.40243 9.55695 6.56389 9.58149 6.72534 9.61379V8.54816C6.72534 7.19191 7.19357 6.04555 8.13003 5.1091C9.06649 4.17264 10.2128 3.70441 11.5691 3.70441C11.7951 3.70441 12.0134 3.72055 12.224 3.75285C12.4332 3.78514 12.6509 3.83357 12.8769 3.89816C13.2321 2.9617 13.8134 2.21124 14.6207 1.64678C15.428 1.08103 16.3483 0.798157 17.3816 0.798157C18.5764 0.798157 19.6181 1.17726 20.5068 1.93547C21.3942 2.69497 21.9347 3.63982 22.1285 4.77003C22.2899 4.73774 22.4598 4.7132 22.638 4.69641C22.815 4.68091 23.0003 4.67316 23.1941 4.67316C24.5503 4.67316 25.6967 5.14139 26.6332 6.07785C27.5696 7.01431 28.0379 8.16066 28.0379 9.51691V16.395C28.1993 16.3627 28.3608 16.3382 28.5222 16.3214C28.6837 16.3059 28.8451 16.2982 29.0066 16.2982C30.3629 16.2982 31.5092 16.7664 32.4457 17.7029C33.3821 18.6393 33.8504 19.7857 33.8504 21.1419V30.8294C33.8504 35.4148 32.2519 39.306 29.055 42.5029C25.8582 45.6997 21.967 47.2982 17.3816 47.2982ZM17.3816 43.4232C19.1253 43.4232 20.7645 43.0925 22.299 42.4312C23.8322 41.7685 25.1639 40.8721 26.2941 39.7419C27.4243 38.6117 28.3207 37.28 28.9834 35.7468C29.6447 34.2123 29.9754 32.5732 29.9754 30.8294V21.1419C29.9754 20.8836 29.8785 20.6575 29.6847 20.4638C29.491 20.27 29.2649 20.1732 29.0066 20.1732C28.7483 20.1732 28.5222 20.27 28.3285 20.4638C28.1347 20.6575 28.0379 20.8836 28.0379 21.1419V29.8607L27.3597 29.9091C25.9066 30.0706 24.6879 30.7003 23.7037 31.7982C22.7181 32.8961 22.2253 34.1878 22.2253 35.6732H18.3503C18.3503 33.6711 18.8832 31.8789 19.9488 30.2966C21.0144 28.7143 22.4191 27.5518 24.1628 26.8091V9.51691C24.1628 9.25858 24.066 9.03254 23.8722 8.83879C23.6785 8.64504 23.4524 8.54816 23.1941 8.54816C22.9358 8.54816 22.7097 8.64504 22.516 8.83879C22.3222 9.03254 22.2253 9.25858 22.2253 9.51691V22.1107H18.3503V5.64191C18.3503 5.38358 18.2535 5.15753 18.0597 4.96378C17.866 4.77003 17.6399 4.67316 17.3816 4.67316C17.1233 4.67316 16.8972 4.77003 16.7035 4.96378C16.5097 5.15753 16.4128 5.38358 16.4128 5.64191V22.1107H12.5378V8.54816C12.5378 8.28983 12.441 8.06379 12.2472 7.87004C12.0535 7.67629 11.8274 7.57941 11.5691 7.57941C11.3108 7.57941 11.0847 7.67629 10.891 7.87004C10.6972 8.06379 10.6003 8.28983 10.6003 8.54816V24.0482H6.72534V14.3607C6.72534 14.1023 6.62847 13.8763 6.43472 13.6825C6.24097 13.4888 6.01493 13.3919 5.75659 13.3919C5.49826 13.3919 5.27222 13.4888 5.07847 13.6825C4.88472 13.8763 4.78784 14.1023 4.78784 14.3607V30.8294C4.78784 32.5732 5.11916 34.2123 5.78178 35.7468C6.44311 37.28 7.33889 38.6117 8.46909 39.7419C9.5993 40.8721 10.9317 41.7685 12.4662 42.4312C13.9994 43.0925 15.6378 43.4232 17.3816 43.4232Z" fill="#FF9666"/>
</svg>
