<svg width="46" height="23" viewBox="0 0 46 23" fill="none" xmlns="http://www.w3.org/2000/svg">
<rect x="0.979492" y="0.180725" width="44.8807" height="22.6047" rx="4" fill="#FF6D6E"/>
<path d="M9.91465 16.1807V5.23072H11.3846V16.1807H9.91465ZM11.0846 16.1807V14.8607H16.0946V16.1807H11.0846ZM18.2538 16.1807V8.17072H19.6938V16.1807H18.2538ZM17.0238 9.31072V8.17072H19.6938V9.31072H17.0238ZM18.6588 6.88073C18.3388 6.88073 18.0988 6.79572 17.9388 6.62572C17.7888 6.45572 17.7138 6.24072 17.7138 5.98072C17.7138 5.72072 17.7888 5.50572 17.9388 5.33572C18.0988 5.16572 18.3388 5.08072 18.6588 5.08072C18.9788 5.08072 19.2138 5.16572 19.3638 5.33572C19.5238 5.50572 19.6038 5.72072 19.6038 5.98072C19.6038 6.24072 19.5238 6.45572 19.3638 6.62572C19.2138 6.79572 18.9788 6.88073 18.6588 6.88073ZM24.1881 16.1807L21.4581 8.17072H22.9581L25.6281 16.1807H24.1881ZM24.5481 16.1807V15.0407H26.2881V16.1807H24.5481ZM25.2381 16.1807L27.5631 8.17072H28.9731L26.6031 16.1807H25.2381ZM34.1155 16.4507C33.4155 16.4507 32.8105 16.3307 32.3005 16.0907C31.7905 15.8507 31.3755 15.5357 31.0555 15.1457C30.7355 14.7457 30.4955 14.3007 30.3355 13.8107C30.1855 13.3207 30.1105 12.8207 30.1105 12.3107V12.0407C30.1105 11.5207 30.1855 11.0157 30.3355 10.5257C30.4955 10.0357 30.7355 9.59572 31.0555 9.20572C31.3755 8.80572 31.7805 8.49073 32.2705 8.26073C32.7705 8.02072 33.3555 7.90072 34.0255 7.90072C34.8955 7.90072 35.6105 8.09072 36.1705 8.47073C36.7405 8.84072 37.1605 9.32072 37.4305 9.91072C37.7105 10.5007 37.8505 11.1307 37.8505 11.8007V12.4457H30.7405V11.3657H36.8005L36.4705 11.9507C36.4705 11.3807 36.3805 10.8907 36.2005 10.4807C36.0205 10.0607 35.7505 9.73572 35.3905 9.50572C35.0305 9.27572 34.5755 9.16072 34.0255 9.16072C33.4555 9.16072 32.9805 9.29072 32.6005 9.55072C32.2305 9.81072 31.9505 10.1657 31.7605 10.6157C31.5805 11.0657 31.4905 11.5857 31.4905 12.1757C31.4905 12.7457 31.5805 13.2607 31.7605 13.7207C31.9505 14.1707 32.2405 14.5307 32.6305 14.8007C33.0205 15.0607 33.5155 15.1907 34.1155 15.1907C34.7455 15.1907 35.2555 15.0507 35.6455 14.7707C36.0455 14.4907 36.2855 14.1657 36.3655 13.7957H37.7155C37.6055 14.3457 37.3855 14.8207 37.0555 15.2207C36.7255 15.6207 36.3105 15.9257 35.8105 16.1357C35.3105 16.3457 34.7455 16.4507 34.1155 16.4507Z" fill="#192440"/>
</svg>
