<svg width="64" height="39" viewBox="0 0 64 39" fill="none" xmlns="http://www.w3.org/2000/svg">
<path d="M31.9092 0.0803223C34.3378 0.0803223 36.6669 1.04506 38.3841 2.76231C40.1014 4.47956 41.0661 6.80865 41.0661 9.23721C41.0661 11.6658 40.1014 13.9949 38.3841 15.7121C36.6669 17.4294 34.3378 18.3941 31.9092 18.3941C29.4807 18.3941 27.1516 17.4294 25.4343 15.7121C23.7171 13.9949 22.7523 11.6658 22.7523 9.23721C22.7523 6.80865 23.7171 4.47956 25.4343 2.76231C27.1516 1.04506 29.4807 0.0803223 31.9092 0.0803223ZM13.5954 6.62096C15.0605 6.62096 16.421 7.0134 17.5983 7.71978C17.2059 11.461 18.3047 15.1761 20.5547 18.0802C19.2465 20.5918 16.6303 22.3185 13.5954 22.3185C11.5138 22.3185 9.51745 21.4916 8.04552 20.0196C6.57359 18.5477 5.74667 16.5513 5.74667 14.4697C5.74667 12.3881 6.57359 10.3917 8.04552 8.91981C9.51745 7.44788 11.5138 6.62096 13.5954 6.62096ZM50.223 6.62096C52.3046 6.62096 54.301 7.44788 55.7729 8.91981C57.2448 10.3917 58.0718 12.3881 58.0718 14.4697C58.0718 16.5513 57.2448 18.5477 55.7729 20.0196C54.301 21.4916 52.3046 22.3185 50.223 22.3185C47.1881 22.3185 44.5719 20.5918 43.2638 18.0802C45.5448 15.1353 46.6036 11.4249 46.2201 7.71978C47.3974 7.0134 48.7579 6.62096 50.223 6.62096ZM14.9036 33.4376C14.9036 28.0219 22.5169 23.6266 31.9092 23.6266C41.3016 23.6266 48.9149 28.0219 48.9149 33.4376V38.016H14.9036V33.4376ZM0.51416 38.016V34.0916C0.51416 30.455 5.45888 27.394 12.1565 26.5045C10.6129 28.2835 9.67105 30.7428 9.67105 33.4376V38.016H0.51416ZM63.3043 38.016H54.1474V33.4376C54.1474 30.7428 53.2055 28.2835 51.6619 26.5045C58.3595 27.394 63.3043 30.455 63.3043 34.0916V38.016Z" fill="#FF9666"/>
</svg>
