<svg width="24" height="25" viewBox="0 0 24 25" fill="none" xmlns="http://www.w3.org/2000/svg">
<path d="M21.3343 0.0830078H2.66764C1.20098 0.0830078 0.000976562 1.28301 0.000976562 2.74967V21.4163C0.000976562 22.883 1.20098 24.083 2.66764 24.083H21.3343C22.801 24.083 24.001 22.883 24.001 21.4163V2.74967C24.001 1.28301 22.801 0.0830078 21.3343 0.0830078ZM21.3343 20.4163C21.3343 20.9686 20.8866 21.4163 20.3343 21.4163H3.66764C3.11536 21.4163 2.66764 20.9686 2.66764 20.4163V3.74967C2.66764 3.19739 3.11536 2.74967 3.66764 2.74967H20.3343C20.8866 2.74967 21.3343 3.19739 21.3343 3.74967V20.4163ZM5.33431 10.4163C5.33431 9.86406 5.78203 9.41634 6.33431 9.41634H7.00098C7.55326 9.41634 8.00098 9.86406 8.00098 10.4163V17.7497C8.00098 18.302 7.55326 18.7497 7.00098 18.7497H6.33431C5.78203 18.7497 5.33431 18.302 5.33431 17.7497V10.4163ZM10.6676 6.41634C10.6676 5.86406 11.1154 5.41634 11.6676 5.41634H12.3343C12.8866 5.41634 13.3343 5.86406 13.3343 6.41634V17.7497C13.3343 18.302 12.8866 18.7497 12.3343 18.7497H11.6676C11.1154 18.7497 10.6676 18.302 10.6676 17.7497V6.41634ZM16.001 14.4163C16.001 13.8641 16.4487 13.4163 17.001 13.4163H17.6676C18.2199 13.4163 18.6676 13.8641 18.6676 14.4163V17.7497C18.6676 18.302 18.2199 18.7497 17.6676 18.7497H17.001C16.4487 18.7497 16.001 18.302 16.001 17.7497V14.4163Z" fill="#192440"/>
</svg>
