<svg width="25" height="23" viewBox="0 0 25 23" fill="none" xmlns="http://www.w3.org/2000/svg">
<path d="M14.8725 2.48301C15.4247 2.48301 15.8725 2.93072 15.8725 3.48301V9.88301C15.8725 10.4353 15.4247 10.883 14.8725 10.883H4.49067C4.22546 10.883 3.9711 10.9884 3.78357 11.1759L3.36846 11.591C3.11162 11.8478 2.67246 11.6659 2.67246 11.3027V3.48301C2.67246 2.93072 3.12018 2.48301 3.67246 2.48301H14.8725ZM17.0725 0.0830078H1.47246C0.812461 0.0830078 0.272461 0.623008 0.272461 1.28301V15.6688C0.272461 16.5597 1.3496 17.0059 1.97957 16.3759L4.77957 13.5759C4.9671 13.3884 5.22146 13.283 5.48667 13.283H17.0725C17.7325 13.283 18.2725 12.743 18.2725 12.083V1.28301C18.2725 0.623008 17.7325 0.0830078 17.0725 0.0830078ZM23.0725 4.88301H21.6725C21.1202 4.88301 20.6725 5.33072 20.6725 5.88301V14.683C20.6725 15.2353 20.2247 15.683 19.6725 15.683H6.07246C5.52018 15.683 5.07246 16.1307 5.07246 16.683V18.083C5.07246 18.743 5.61246 19.283 6.27246 19.283H19.0582C19.3235 19.283 19.5778 19.3884 19.7654 19.5759L22.5654 22.3759C23.1953 23.0059 24.2725 22.5597 24.2725 21.6688V6.08301C24.2725 5.42301 23.7325 4.88301 23.0725 4.88301Z" fill="black"/>
</svg>
