<svg width="63" height="63" viewBox="0 0 63 63" fill="none" xmlns="http://www.w3.org/2000/svg">
<path d="M38.0847 34.4323C40.208 31.5895 41.3585 28.1381 41.3656 24.5898C41.3656 21.2688 40.3808 18.0223 38.5357 15.2609C36.6906 12.4995 34.0681 10.3473 30.9998 9.07635C27.9315 7.80543 24.5553 7.4729 21.298 8.12081C18.0407 8.76872 15.0488 10.368 12.7004 12.7163C10.352 15.0647 8.75279 18.0567 8.10488 21.3139C7.45697 24.5712 7.7895 27.9474 9.06042 31.0157C10.3313 34.084 12.4836 36.7065 15.245 38.5516C18.0063 40.3967 21.2528 41.3815 24.5739 41.3815C28.2681 41.3815 31.6522 40.1415 34.4164 38.1007L50.6397 54.2982L54.2822 50.6557L38.0847 34.4323ZM24.5739 36.2148C18.1414 36.2148 12.9489 31.0223 12.9489 24.5898C12.9489 18.1573 18.1414 12.9648 24.5739 12.9648C31.0064 12.9648 36.1989 18.1573 36.1989 24.5898C36.1989 31.0223 31.0064 36.2148 24.5739 36.2148Z" fill="#FF9666"/>
<path d="M26.6148 21.8515L24.5739 15.5482L22.5331 21.8515H16.1781L21.3706 25.959L19.3814 32.3398L24.5739 28.3873L29.7664 32.3398L27.7773 25.959L32.9698 21.8515H26.6148Z" fill="#FF9666"/>
</svg>
