<svg width="24" height="25" viewBox="0 0 24 25" fill="none" xmlns="http://www.w3.org/2000/svg">
<path d="M7.20098 14.883C7.20098 15.9876 8.09641 16.883 9.20098 16.883H14.801C15.9055 16.883 16.801 15.9876 16.801 14.883V9.28301C16.801 8.17844 15.9055 7.28301 14.801 7.28301H9.20097C8.09641 7.28301 7.20098 8.17844 7.20098 9.28301V14.883ZM12.001 24.083C10.341 24.083 8.78098 23.7678 7.32098 23.1374C5.86098 22.507 4.59098 21.6522 3.51098 20.573C2.43098 19.493 1.57618 18.223 0.946577 16.763C0.316977 15.303 0.00177656 13.743 0.000976562 12.083C0.000976562 10.423 0.316177 8.86301 0.946577 7.40301C1.57698 5.94301 2.43178 4.67301 3.51098 3.59301C4.59098 2.51301 5.86098 1.65821 7.32098 1.02861C8.78098 0.399008 10.341 0.0838078 12.001 0.0830078C13.661 0.0830078 15.221 0.398208 16.681 1.02861C18.141 1.65901 19.411 2.51381 20.491 3.59301C21.571 4.67301 22.4262 5.94301 23.0566 7.40301C23.687 8.86301 24.0018 10.423 24.001 12.083C24.001 13.743 23.6858 15.303 23.0554 16.763C22.425 18.223 21.5702 19.493 20.491 20.573C19.411 21.653 18.141 22.5082 16.681 23.1386C15.221 23.769 13.661 24.0838 12.001 24.083ZM12.001 21.683C14.681 21.683 16.951 20.753 18.811 18.893C20.671 17.033 21.601 14.763 21.601 12.083C21.601 9.40301 20.671 7.13301 18.811 5.27301C16.951 3.41301 14.681 2.48301 12.001 2.48301C9.32098 2.48301 7.05098 3.41301 5.19098 5.27301C3.33098 7.13301 2.40098 9.40301 2.40098 12.083C2.40098 14.763 3.33098 17.033 5.19098 18.893C7.05098 20.753 9.32098 21.683 12.001 21.683Z" fill="#FF2525"/>
</svg>
