<svg width="40" height="30" viewBox="0 0 40 30" fill="none" xmlns="http://www.w3.org/2000/svg">
<path d="M27.2397 0.708618C27.7149 0.708618 28.1706 0.897383 28.5066 1.23339C28.8427 1.56939 29.0314 2.02511 29.0314 2.50028V10.0253L38.3714 3.4857C38.5057 3.39156 38.6632 3.33609 38.8269 3.32535C38.9906 3.31461 39.154 3.349 39.2995 3.42477C39.4449 3.50055 39.5668 3.61481 39.6518 3.75508C39.7368 3.89536 39.7816 4.05627 39.7814 4.22028V25.8636C39.7816 26.0276 39.7368 26.1885 39.6518 26.3288C39.5668 26.4691 39.4449 26.5833 39.2995 26.6591C39.154 26.7349 38.9906 26.7693 38.8269 26.7586C38.6632 26.7478 38.5057 26.6923 38.3714 26.5982L29.0314 20.0586V27.5836C29.0314 28.0588 28.8427 28.5145 28.5066 28.8505C28.1706 29.1865 27.7149 29.3753 27.2397 29.3753H2.15641C1.68123 29.3753 1.22552 29.1865 0.889513 28.8505C0.55351 28.5145 0.364746 28.0588 0.364746 27.5836V2.50028C0.364746 2.02511 0.55351 1.56939 0.889513 1.23339C1.22552 0.897383 1.68123 0.708618 2.15641 0.708618H27.2397ZM11.8314 9.36058C11.6662 9.36054 11.506 9.41759 11.3781 9.52207C11.2501 9.62655 11.1621 9.77203 11.1291 9.93391L11.1147 10.0755V20.0049C11.1147 20.1209 11.1429 20.2353 11.1968 20.338C11.2508 20.4408 11.3289 20.5289 11.4244 20.5948C11.5199 20.6607 11.63 20.7025 11.7452 20.7164C11.8604 20.7304 11.9773 20.7162 12.0858 20.675L12.2166 20.6105L20.0193 15.644C20.1104 15.5857 20.1871 15.5076 20.2437 15.4155C20.3003 15.3235 20.3353 15.2198 20.3461 15.1122C20.357 15.0047 20.3434 14.8961 20.3064 14.7946C20.2693 14.6931 20.2098 14.6012 20.1322 14.526L20.0193 14.4364L12.2166 9.46987C12.101 9.39821 11.9674 9.35913 11.8314 9.36058Z" fill="#192440"/>
</svg>
