<svg width="36" height="25" viewBox="0 0 36 25" fill="none" xmlns="http://www.w3.org/2000/svg">
<path d="M14.251 17.5283L23.3335 12.2783L14.251 7.02832V17.5283ZM34.481 3.82582C34.7085 4.64832 34.866 5.75082 34.971 7.15082C35.0935 8.55082 35.146 9.75832 35.146 10.8083L35.251 12.2783C35.251 16.1108 34.971 18.9283 34.481 20.7308C34.0435 22.3058 33.0285 23.3208 31.4535 23.7583C30.631 23.9858 29.126 24.1433 26.816 24.2483C24.541 24.3708 22.4585 24.4233 20.5335 24.4233L17.751 24.5283C10.4185 24.5283 5.85098 24.2483 4.04848 23.7583C2.47348 23.3208 1.45848 22.3058 1.02098 20.7308C0.793477 19.9083 0.635977 18.8058 0.530977 17.4058C0.408477 16.0058 0.355976 14.7983 0.355976 13.7483L0.250977 12.2783C0.250977 8.44582 0.530977 5.62832 1.02098 3.82582C1.45848 2.25082 2.47348 1.23582 4.04848 0.79832C4.87098 0.57082 6.37598 0.41332 8.68598 0.30832C10.961 0.18582 13.0435 0.13332 14.9685 0.13332L17.751 0.0283203C25.0835 0.0283203 29.651 0.30832 31.4535 0.79832C33.0285 1.23582 34.0435 2.25082 34.481 3.82582Z" fill="#FD1E1E"/>
</svg>
